<mxfile host="app.diagrams.net" modified="2021-07-08T04:03:56.104Z" agent="5.0 (Macintosh; Intel Mac OS X 10_15_7) AppleWebKit/537.36 (KHTML, like Gecko) Chrome/91.0.4472.114 Safari/537.36" etag="E1cxn-irSl8Rzc2gi4yd" version="14.8.4" type="github">
  <diagram id="kgpKYQtTHZ0yAKxKKP6v" name="Page-1">
    <mxGraphModel dx="2105" dy="769" grid="1" gridSize="10" guides="1" tooltips="1" connect="1" arrows="1" fold="1" page="1" pageScale="1" pageWidth="850" pageHeight="1100" math="0" shadow="0">
      <root>
        <mxCell id="0" />
        <mxCell id="1" parent="0" />
        <mxCell id="vUlYMT36iKvDAk3lZue9-5" value="套装购促销" style="swimlane;childLayout=stackLayout;resizeParent=1;resizeParentMax=0;startSize=20;" vertex="1" parent="1">
          <mxGeometry x="-160" y="50" width="990" height="720" as="geometry">
            <mxRectangle x="-320" y="50" width="90" height="20" as="alternateBounds" />
          </mxGeometry>
        </mxCell>
        <mxCell id="vUlYMT36iKvDAk3lZue9-6" value="购物车前台" style="swimlane;startSize=20;" vertex="1" parent="vUlYMT36iKvDAk3lZue9-5">
          <mxGeometry y="20" width="330" height="700" as="geometry">
            <mxRectangle y="20" width="30" height="700" as="alternateBounds" />
          </mxGeometry>
        </mxCell>
        <mxCell id="vUlYMT36iKvDAk3lZue9-16" style="edgeStyle=orthogonalEdgeStyle;rounded=0;orthogonalLoop=1;jettySize=auto;html=1;entryX=0.5;entryY=0;entryDx=0;entryDy=0;" edge="1" parent="vUlYMT36iKvDAk3lZue9-6" source="vUlYMT36iKvDAk3lZue9-11" target="vUlYMT36iKvDAk3lZue9-12">
          <mxGeometry relative="1" as="geometry" />
        </mxCell>
        <mxCell id="vUlYMT36iKvDAk3lZue9-11" value="开始" style="ellipse;whiteSpace=wrap;html=1;" vertex="1" parent="vUlYMT36iKvDAk3lZue9-6">
          <mxGeometry x="117.5" y="50" width="70" height="40" as="geometry" />
        </mxCell>
        <mxCell id="vUlYMT36iKvDAk3lZue9-12" value="购物车查询" style="rounded=1;whiteSpace=wrap;html=1;" vertex="1" parent="vUlYMT36iKvDAk3lZue9-6">
          <mxGeometry x="100" y="120" width="105" height="30" as="geometry" />
        </mxCell>
        <mxCell id="vUlYMT36iKvDAk3lZue9-24" value="解析购物车主数据" style="rounded=1;whiteSpace=wrap;html=1;" vertex="1" parent="vUlYMT36iKvDAk3lZue9-6">
          <mxGeometry x="90" y="380" width="105" height="30" as="geometry" />
        </mxCell>
        <mxCell id="vUlYMT36iKvDAk3lZue9-37" value="解析购物车主数据" style="rounded=1;whiteSpace=wrap;html=1;" vertex="1" parent="vUlYMT36iKvDAk3lZue9-6">
          <mxGeometry x="90" y="460" width="105" height="30" as="geometry" />
        </mxCell>
        <mxCell id="vUlYMT36iKvDAk3lZue9-7" value="购物车中台" style="swimlane;startSize=20;" vertex="1" parent="vUlYMT36iKvDAk3lZue9-5">
          <mxGeometry x="330" y="20" width="320" height="700" as="geometry" />
        </mxCell>
        <mxCell id="vUlYMT36iKvDAk3lZue9-18" style="edgeStyle=orthogonalEdgeStyle;rounded=0;orthogonalLoop=1;jettySize=auto;html=1;entryX=0.5;entryY=0;entryDx=0;entryDy=0;" edge="1" parent="vUlYMT36iKvDAk3lZue9-7" source="vUlYMT36iKvDAk3lZue9-13" target="vUlYMT36iKvDAk3lZue9-14">
          <mxGeometry relative="1" as="geometry" />
        </mxCell>
        <mxCell id="vUlYMT36iKvDAk3lZue9-13" value="购物车查询" style="rounded=1;whiteSpace=wrap;html=1;" vertex="1" parent="vUlYMT36iKvDAk3lZue9-7">
          <mxGeometry x="100" y="120" width="90" height="30" as="geometry" />
        </mxCell>
        <mxCell id="vUlYMT36iKvDAk3lZue9-14" value="调促销中台" style="rounded=1;whiteSpace=wrap;html=1;" vertex="1" parent="vUlYMT36iKvDAk3lZue9-7">
          <mxGeometry x="100" y="180" width="90" height="30" as="geometry" />
        </mxCell>
        <mxCell id="vUlYMT36iKvDAk3lZue9-23" style="edgeStyle=orthogonalEdgeStyle;rounded=0;orthogonalLoop=1;jettySize=auto;html=1;entryX=0.5;entryY=0;entryDx=0;entryDy=0;" edge="1" parent="vUlYMT36iKvDAk3lZue9-7" source="vUlYMT36iKvDAk3lZue9-20" target="vUlYMT36iKvDAk3lZue9-22">
          <mxGeometry relative="1" as="geometry" />
        </mxCell>
        <mxCell id="vUlYMT36iKvDAk3lZue9-20" value="拼装促销相关信息" style="rounded=1;whiteSpace=wrap;html=1;" vertex="1" parent="vUlYMT36iKvDAk3lZue9-7">
          <mxGeometry x="100" y="310" width="90" height="30" as="geometry" />
        </mxCell>
        <mxCell id="vUlYMT36iKvDAk3lZue9-22" value="返回购物车主数据" style="rounded=1;whiteSpace=wrap;html=1;" vertex="1" parent="vUlYMT36iKvDAk3lZue9-7">
          <mxGeometry x="100" y="380" width="90" height="30" as="geometry" />
        </mxCell>
        <mxCell id="vUlYMT36iKvDAk3lZue9-8" value="促销中台" style="swimlane;startSize=20;" vertex="1" parent="vUlYMT36iKvDAk3lZue9-5">
          <mxGeometry x="650" y="20" width="340" height="700" as="geometry" />
        </mxCell>
        <mxCell id="vUlYMT36iKvDAk3lZue9-28" style="edgeStyle=orthogonalEdgeStyle;rounded=0;orthogonalLoop=1;jettySize=auto;html=1;entryX=0.5;entryY=0;entryDx=0;entryDy=0;" edge="1" parent="vUlYMT36iKvDAk3lZue9-8" source="vUlYMT36iKvDAk3lZue9-15" target="vUlYMT36iKvDAk3lZue9-26">
          <mxGeometry relative="1" as="geometry" />
        </mxCell>
        <mxCell id="vUlYMT36iKvDAk3lZue9-15" value="促销类型" style="rounded=1;whiteSpace=wrap;html=1;" vertex="1" parent="vUlYMT36iKvDAk3lZue9-8">
          <mxGeometry x="125" y="180" width="90" height="30" as="geometry" />
        </mxCell>
        <mxCell id="vUlYMT36iKvDAk3lZue9-29" style="edgeStyle=orthogonalEdgeStyle;rounded=0;orthogonalLoop=1;jettySize=auto;html=1;entryX=0.5;entryY=0;entryDx=0;entryDy=0;" edge="1" parent="vUlYMT36iKvDAk3lZue9-8" source="vUlYMT36iKvDAk3lZue9-26" target="vUlYMT36iKvDAk3lZue9-27">
          <mxGeometry relative="1" as="geometry" />
        </mxCell>
        <mxCell id="vUlYMT36iKvDAk3lZue9-26" value="促销类分堆" style="rounded=1;whiteSpace=wrap;html=1;" vertex="1" parent="vUlYMT36iKvDAk3lZue9-8">
          <mxGeometry x="125" y="240" width="90" height="30" as="geometry" />
        </mxCell>
        <mxCell id="vUlYMT36iKvDAk3lZue9-27" value="促销价格等计算" style="rounded=1;whiteSpace=wrap;html=1;" vertex="1" parent="vUlYMT36iKvDAk3lZue9-8">
          <mxGeometry x="125" y="310" width="90" height="30" as="geometry" />
        </mxCell>
        <mxCell id="vUlYMT36iKvDAk3lZue9-17" style="edgeStyle=orthogonalEdgeStyle;rounded=0;orthogonalLoop=1;jettySize=auto;html=1;entryX=0;entryY=0.5;entryDx=0;entryDy=0;" edge="1" parent="vUlYMT36iKvDAk3lZue9-5" source="vUlYMT36iKvDAk3lZue9-12" target="vUlYMT36iKvDAk3lZue9-13">
          <mxGeometry relative="1" as="geometry" />
        </mxCell>
        <mxCell id="vUlYMT36iKvDAk3lZue9-19" style="edgeStyle=orthogonalEdgeStyle;rounded=0;orthogonalLoop=1;jettySize=auto;html=1;" edge="1" parent="vUlYMT36iKvDAk3lZue9-5" source="vUlYMT36iKvDAk3lZue9-14" target="vUlYMT36iKvDAk3lZue9-15">
          <mxGeometry relative="1" as="geometry" />
        </mxCell>
        <mxCell id="vUlYMT36iKvDAk3lZue9-25" style="edgeStyle=orthogonalEdgeStyle;rounded=0;orthogonalLoop=1;jettySize=auto;html=1;" edge="1" parent="vUlYMT36iKvDAk3lZue9-5" source="vUlYMT36iKvDAk3lZue9-22" target="vUlYMT36iKvDAk3lZue9-24">
          <mxGeometry relative="1" as="geometry" />
        </mxCell>
        <mxCell id="vUlYMT36iKvDAk3lZue9-30" style="edgeStyle=orthogonalEdgeStyle;rounded=0;orthogonalLoop=1;jettySize=auto;html=1;entryX=1;entryY=0.5;entryDx=0;entryDy=0;" edge="1" parent="vUlYMT36iKvDAk3lZue9-5" source="vUlYMT36iKvDAk3lZue9-27" target="vUlYMT36iKvDAk3lZue9-20">
          <mxGeometry relative="1" as="geometry" />
        </mxCell>
        <mxCell id="vUlYMT36iKvDAk3lZue9-31" value="购物车客户端" style="swimlane;startSize=20;" vertex="1" parent="1">
          <mxGeometry x="-330" y="70" width="170" height="700" as="geometry" />
        </mxCell>
      </root>
    </mxGraphModel>
  </diagram>
</mxfile>
